<?xml version="1.0" encoding="utf-8"?>
<!-- Generator: Adobe Illustrator 19.0.0, SVG Export Plug-In . SVG Version: 6.00 Build 0)  -->
<svg version="1.1" id="Слой_1" xmlns="http://www.w3.org/2000/svg" xmlns:xlink="http://www.w3.org/1999/xlink" x="0px" y="0px"
	 viewBox="0 0 850.4 850.4" style="enable-background:new 0 0 850.4 850.4;" xml:space="preserve">
<style type="text/css">
	.st0{fill:url(#XMLID_22_);}
	.st1{fill:url(#XMLID_23_);}
	.st2{fill:url(#XMLID_24_);}
	.st3{fill:url(#XMLID_25_);}
	.st4{fill:none;stroke:url(#XMLID_26_);stroke-width:15.9918;stroke-miterlimit:10;}
</style>
<g id="XMLID_2_">
</g>
<linearGradient id="XMLID_22_" gradientUnits="userSpaceOnUse" x1="293.467" y1="495.6185" x2="452.7179" y2="361.5362">
	<stop  offset="0" style="stop-color:#4953FD"/>
	<stop  offset="0.1233" style="stop-color:#606CFC"/>
	<stop  offset="0.3089" style="stop-color:#5C81F4"/>
	<stop  offset="1" style="stop-color:#A4D0DE"/>
</linearGradient>
<path id="XMLID_27_" class="st0" d="M529.3,350.4v9c0,18.7-15.3,29.4-34,29.4H396v35.4h54.5c17.2,0,31.2,14,31.2,31.2
	c0,8.6-3.5,16.4-9.2,22c-5.7,5.7-13.5,9.2-22.1,9.2H396v35c0,1.2-0.1,2.4-0.2,3.5v0c-1.8,19-17.8,33.8-37.2,33.8
	c-19,0-34.6-14.1-37.1-32.4c0,0,0,0,0,0c-0.3-1.2-0.5-2.4-0.5-3.7V358.9c0-23.3,19.3-41.8,42.3-42.6l17.6,0.2h114.3
	C514,316.4,529.3,331.7,529.3,350.4z"/>
<linearGradient id="XMLID_23_" gradientUnits="userSpaceOnUse" x1="421.1369" y1="352.66" x2="559.0245" y2="352.2598">
	<stop  offset="0" style="stop-color:#97B9FF"/>
	<stop  offset="0.7246" style="stop-color:#5F86FF"/>
	<stop  offset="1" style="stop-color:#0069AA"/>
</linearGradient>
<path id="XMLID_4_" class="st1" d="M396,388.8c0,0,1.4-78.2,99.3-72.4c0,0,37.6-0.8,34,43.4c0,0,1.6,27.6-34,28.9H396z"/>
<linearGradient id="XMLID_24_" gradientUnits="userSpaceOnUse" x1="322.058" y1="370.1644" x2="484.8802" y2="370.1644">
	<stop  offset="0" style="stop-color:#C3FFFF"/>
	<stop  offset="0.4833" style="stop-color:#5586FF"/>
	<stop  offset="1" style="stop-color:#0048AA"/>
</linearGradient>
<path id="XMLID_5_" class="st2" d="M396,424.2c0,0-76.3-5.5-73.9-69.4c0,0,0.6-36.5,42.1-38.7h120.6c0,0-69.7,5.4-88,72.6"/>
<linearGradient id="XMLID_25_" gradientUnits="userSpaceOnUse" x1="331.6895" y1="534.7773" x2="365.4821" y2="464.2234">
	<stop  offset="0" style="stop-color:#5E69D7"/>
	<stop  offset="1" style="stop-color:#5FB4D8"/>
</linearGradient>
<path id="XMLID_3_" class="st3" d="M321.1,426c0,0,2.5,23.7,37.6,39.5c17.5,7.9,32,7.8,37.4,21.1c0,0,0.1,28.1-0.2,38.6
	c-0.6,19.9-19,33.8-37.2,33.8c-11.4,0-19-4.5-24.5-9.1c-5.3-4.5-9.1-10.5-11-15.4c-1.8-4.7-2.1-9.5-2.1-14.5V426z"/>
<linearGradient id="XMLID_26_" gradientUnits="userSpaceOnUse" x1="240.0115" y1="438.655" x2="594.5461" y2="438.655">
	<stop  offset="0" style="stop-color:#C3FFFF"/>
	<stop  offset="0.4833" style="stop-color:#5586FF"/>
	<stop  offset="1" style="stop-color:#0048AA"/>
</linearGradient>
<path id="XMLID_8_" class="st4" d="M313.1,269.4h208.4c35.8,0,65.1,29.3,65.1,65.1v208.4c0,35.8-29.3,65.1-65.1,65.1H313.1
	c-35.8,0-65.1-29.3-65.1-65.1V334.4C248,298.7,277.3,269.4,313.1,269.4z"/>
<g id="XMLID_1_">
</g>
<g id="XMLID_11_">
</g>
<g id="XMLID_12_">
</g>
<g id="XMLID_13_">
</g>
<g id="XMLID_14_">
</g>
<g id="XMLID_15_">
</g>
<g id="XMLID_16_">
</g>
<g id="XMLID_17_">
</g>
<g id="XMLID_18_">
</g>
<g id="XMLID_19_">
</g>
<g id="XMLID_20_">
</g>
</svg>
