<?xml version="1.0" encoding="UTF-8"?>
<svg width="91px" height="91px" viewBox="0 0 91 91" version="1.1" xmlns="http://www.w3.org/2000/svg" xmlns:xlink="http://www.w3.org/1999/xlink">
    <!-- Generator: Sketch 47 (45396) - http://www.bohemiancoding.com/sketch -->
    <title>лого2</title>
    <desc>Created with Sketch.</desc>
    <defs>
        <linearGradient x1="-13.2179549%" y1="73.9152927%" x2="63.2347096%" y2="18.6464138%" id="linearGradient-1">
            <stop stop-color="#4953FD" offset="0%"></stop>
            <stop stop-color="#606CFC" offset="12.33%"></stop>
            <stop stop-color="#5C81F4" offset="30.89%"></stop>
            <stop stop-color="#A4D0DE" offset="100%"></stop>
        </linearGradient>
        <linearGradient x1="18.8230837%" y1="50.2939105%" x2="122.076461%" y2="49.743485%" id="linearGradient-2">
            <stop stop-color="#97B9FF" offset="0%"></stop>
            <stop stop-color="#5F86FF" offset="72.46%"></stop>
            <stop stop-color="#0069AA" offset="100%"></stop>
        </linearGradient>
        <linearGradient x1="0.00826653413%" y1="50.013321%" x2="100.049276%" y2="50.013321%" id="linearGradient-3">
            <stop stop-color="#C3FFFF" offset="0%"></stop>
            <stop stop-color="#5586FF" offset="48.33%"></stop>
            <stop stop-color="#0048AA" offset="100%"></stop>
        </linearGradient>
        <linearGradient x1="14.1163219%" y1="81.7874436%" x2="59.1635118%" y2="28.7393985%" id="linearGradient-4">
            <stop stop-color="#5E69D7" offset="0%"></stop>
            <stop stop-color="#5FB4D8" offset="100%"></stop>
        </linearGradient>
        <linearGradient x1="-2.35927348%" y1="49.98671%" x2="102.346751%" y2="49.98671%" id="linearGradient-5">
            <stop stop-color="#C3FFFF" offset="0%"></stop>
            <stop stop-color="#5586FF" offset="48.33%"></stop>
            <stop stop-color="#0048AA" offset="100%"></stop>
        </linearGradient>
    </defs>
    <g id="Page-1" stroke="none" stroke-width="1" fill="none" fill-rule="evenodd">
        <g id="State-2-—-Active-Client" transform="translate(-67.000000, -57.000000)">
            <g id="лого2" transform="translate(70.000000, 60.000000)">
                <path d="M70.5324484,20.4100295 L70.5324484,22.6666667 C70.5324484,27.3554572 66.6961652,30.0383481 62.0073746,30.0383481 L37.1091445,30.0383481 L37.1091445,38.9144543 L50.7743363,38.9144543 C55.0870206,38.9144543 58.5973451,42.4247788 58.5973451,46.7374631 C58.5973451,48.8938053 57.719764,50.8495575 56.2905605,52.2536873 C54.8613569,53.6828909 52.9056047,54.560472 50.7492625,54.560472 L37.1091445,54.560472 L37.1091445,63.3362832 C37.1091445,63.6371681 37.0840708,63.9380531 37.0589971,64.2138643 L37.0589971,64.2138643 C36.6076696,68.9778761 32.5958702,72.6887906 27.7315634,72.6887906 C22.9675516,72.6887906 19.0560472,69.1533923 18.4292035,64.5648968 C18.4292035,64.5648968 18.4292035,64.5648968 18.4292035,64.5648968 C18.3539823,64.2640118 18.3038348,63.9631268 18.3038348,63.6371681 L18.3038348,22.5412979 C18.3038348,16.699115 23.1430678,12.060472 28.9100295,11.859882 L33.3230088,11.9100295 L61.9823009,11.9100295 C66.6961652,11.8849558 70.5324484,15.7212389 70.5324484,20.4100295 Z" id="XMLID_27_" fill="url(#linearGradient-1)" fill-rule="nonzero"></path>
                <path d="M37.1091445,30.0383481 C37.1091445,30.0383481 37.460177,10.4306785 62.0073746,11.8849558 C62.0073746,11.8849558 71.4351032,11.6843658 70.5324484,22.7669617 C70.5324484,22.7669617 70.9336283,29.6873156 62.0073746,30.0132743 L37.1091445,30.0132743 L37.1091445,30.0383481 Z" id="XMLID_4_" fill="url(#linearGradient-2)" fill-rule="nonzero"></path>
                <path d="M37.1091445,38.9144543 C37.1091445,38.9144543 17.9778761,37.5353982 18.579646,21.5132743 C18.579646,21.5132743 18.7300885,12.3613569 29.1356932,11.8097345 L59.3746313,11.8097345 C59.3746313,11.8097345 41.8982301,13.1637168 37.3097345,30.0132743" id="XMLID_5_" fill="url(#linearGradient-3)" fill-rule="nonzero"></path>
                <path d="M18.3289086,39.3657817 C18.3289086,39.3657817 18.9557522,45.3082596 27.7566372,49.2699115 C32.1445428,51.2507375 35.780236,51.2256637 37.1342183,54.560472 C37.1342183,54.560472 37.159292,61.6061947 37.0840708,64.2389381 C36.9336283,69.2286136 32.320059,72.7138643 27.7566372,72.7138643 C24.8982301,72.7138643 22.9926254,71.5855457 21.6135693,70.4321534 C20.2846608,69.3038348 19.3318584,67.79941 18.8554572,66.5707965 C18.4041298,65.3923304 18.3289086,64.1887906 18.3289086,62.9351032 L18.3289086,39.3657817 Z" id="XMLID_3_" fill="url(#linearGradient-4)" fill-rule="nonzero"></path>
                <path d="M16.3230088,0.100294985 L68.5766962,0.100294985 C77.5530973,0.100294985 84.899705,7.44690265 84.899705,16.4233038 L84.899705,68.6769912 C84.899705,77.6533923 77.5530973,85 68.5766962,85 L16.3230088,85 C7.34660767,85 2.84217094e-14,77.6533923 2.84217094e-14,68.6769912 L2.84217094e-14,16.3982301 C2.12953221e-14,7.44690265 7.34660767,0.100294985 16.3230088,0.100294985 Z" id="XMLID_8_" stroke="url(#linearGradient-5)" stroke-width="4.5"></path>
            </g>
        </g>
    </g>
</svg>